<svg width="100%" height="100%" viewBox="0 0 24 24" fill="none" xmlns="http://www.w3.org/2000/svg">
<path fill-rule="evenodd" clip-rule="evenodd" d="M5.0303 5.0303C5.0497 5.0109 5.07601 5 5.10345 5H8.96552C8.99295 5 9.01927 5.0109 9.03867 5.0303C9.05807 5.0497 9.06897 5.07601 9.06897 5.10345V8.96552C9.06897 8.99295 9.05807 9.01927 9.03867 9.03867C9.01927 9.05807 8.99295 9.06897 8.96552 9.06897H5.10345C5.07601 9.06897 5.0497 9.05807 5.0303 9.03867C5.0109 9.01927 5 8.99295 5 8.96552V5.10345C5 5.07601 5.0109 5.0497 5.0303 5.0303ZM5.10345 3C4.54558 3 4.01056 3.22161 3.61609 3.61609C3.22161 4.01056 3 4.54558 3 5.10345V8.96552C3 9.52339 3.22161 10.0584 3.61609 10.4529C4.01056 10.8474 4.54558 11.069 5.10345 11.069H8.96552C9.52339 11.069 10.0584 10.8474 10.4529 10.4529C10.8474 10.0584 11.069 9.52339 11.069 8.96552V5.10345C11.069 4.54558 10.8474 4.01056 10.4529 3.61609C10.0584 3.22161 9.52339 3 8.96552 3H5.10345ZM14.9613 5.0303C14.9807 5.0109 15.007 5 15.0345 5H18.8966C18.924 5 18.9503 5.0109 18.9697 5.0303C18.9891 5.0497 19 5.07601 19 5.10345V8.96552C19 8.99296 18.9891 9.01927 18.9697 9.03867C18.9503 9.05807 18.924 9.06897 18.8966 9.06897H15.0345C15.007 9.06897 14.9807 9.05807 14.9613 9.03867C14.9419 9.01927 14.931 8.99295 14.931 8.96552V5.10345C14.931 5.07601 14.9419 5.0497 14.9613 5.0303ZM15.0345 3C14.4766 3 13.9416 3.22161 13.5471 3.61609C13.1526 4.01056 12.931 4.54558 12.931 5.10345V8.96552C12.931 9.52339 13.1526 10.0584 13.5471 10.4529C13.9416 10.8474 14.4766 11.069 15.0345 11.069H18.8966C19.4544 11.069 19.9894 10.8474 20.3839 10.4529C20.7784 10.0584 21 9.52338 21 8.96552V5.10345C21 4.54558 20.7784 4.01056 20.3839 3.61609C19.9894 3.22161 19.4544 3 18.8966 3H15.0345ZM5.0303 14.9613C5.0497 14.9419 5.07601 14.931 5.10345 14.931H8.96552C8.99295 14.931 9.01927 14.9419 9.03867 14.9613C9.05807 14.9807 9.06897 15.007 9.06897 15.0345V18.8966C9.06897 18.924 9.05807 18.9503 9.03867 18.9697C9.01927 18.9891 8.99296 19 8.96552 19H5.10345C5.07601 19 5.0497 18.9891 5.0303 18.9697C5.0109 18.9503 5 18.924 5 18.8966V15.0345C5 15.007 5.0109 14.9807 5.0303 14.9613ZM5.10345 12.931C4.54558 12.931 4.01056 13.1526 3.61609 13.5471C3.22161 13.9416 3 14.4766 3 15.0345V18.8966C3 19.4544 3.22161 19.9894 3.61609 20.3839C4.01056 20.7784 4.54558 21 5.10345 21H8.96552C9.52338 21 10.0584 20.7784 10.4529 20.3839C10.8474 19.9894 11.069 19.4544 11.069 18.8966V15.0345C11.069 14.4766 10.8474 13.9416 10.4529 13.5471C10.0584 13.1526 9.52339 12.931 8.96552 12.931H5.10345ZM15.0129 15.0129C15.0322 14.9937 15.0583 14.9829 15.0855 14.9829H18.9145C18.9417 14.9829 18.9678 14.9937 18.9871 15.0129C19.0063 15.0322 19.0171 15.0583 19.0171 15.0855V18.9145C19.0171 18.9417 19.0063 18.9678 18.9871 18.9871C18.9678 19.0063 18.9417 19.0171 18.9145 19.0171H15.0855C15.0583 19.0171 15.0322 19.0063 15.0129 18.9871C14.9937 18.9678 14.9829 18.9417 14.9829 18.9145V15.0855C14.9829 15.0583 14.9937 15.0322 15.0129 15.0129ZM15.0855 13C14.5324 13 14.0019 13.2197 13.6108 13.6108C13.2197 14.0019 13 14.5324 13 15.0855V18.9145C13 19.4676 13.2197 19.9981 13.6108 20.3892C14.0019 20.7803 14.5324 21 15.0855 21H18.9145C19.4676 21 19.9981 20.7803 20.3892 20.3892C20.7803 19.9981 21 19.4676 21 18.9145V15.0855C21 14.5324 20.7803 14.0019 20.3892 13.6108C19.9981 13.2197 19.4676 13 18.9145 13H15.0855Z" fill="currentColor"/>
</svg>
