<svg width="100%" height="100%" viewBox="0 0 24 24" fill="none" xmlns="http://www.w3.org/2000/svg">
<path d="M4.26841 10.9234V12.1044C4.26841 12.3241 4.18602 12.5164 4.02122 12.6812C3.85643 12.846 3.66417 12.9283 3.44444 12.9283C3.20641 12.9283 3.00499 12.846 2.8402 12.6812C2.69372 12.5164 2.62047 12.3241 2.62047 12.1044V10.841C2.69372 9.6874 2.97753 8.60708 3.47191 7.60001C3.96629 6.59293 4.60716 5.72319 5.39451 4.99077C6.20017 4.24004 7.12484 3.64495 8.16854 3.2055C9.21223 2.78436 10.32 2.57379 11.4919 2.57379C12.6271 2.57379 13.6983 2.77521 14.7054 3.17804C15.7124 3.56256 16.6097 4.10271 17.397 4.79851C18.1844 5.49431 18.8344 6.30912 19.3471 7.24295C19.8598 8.17679 20.1893 9.19302 20.3358 10.2916V10.5663L21.764 8.91836L23 10.017L19.6767 13.8347L15.8589 10.4839L16.9301 9.24795L18.6879 10.786V10.4564C18.578 9.57754 18.3125 8.75357 17.8914 7.98453C17.4702 7.2338 16.9392 6.58378 16.2984 6.03447C15.6575 5.46684 14.9251 5.01824 14.1011 4.68865C13.2772 4.37737 12.4074 4.22173 11.4919 4.22173C10.5397 4.22173 9.64253 4.39568 8.80025 4.74358C7.93966 5.09148 7.18893 5.56755 6.54806 6.17179C5.9072 6.77604 5.3762 7.48099 4.95506 8.28665C4.55223 9.11062 4.32335 9.98952 4.26841 10.9234Z" fill="currentColor"/>
<path fill-rule="evenodd" clip-rule="evenodd" d="M3.82896 15.7573C3.04161 15.7573 2.37328 16.032 1.82397 16.5813C1.27466 17.1306 1 17.7989 1 18.5863C1 19.3553 1.27466 20.0236 1.82397 20.5913C2.37328 21.1406 3.04161 21.4152 3.82896 21.4152C4.598 21.4152 5.25718 21.1406 5.80649 20.5913C6.37412 20.0236 6.65793 19.3553 6.65793 18.5863C6.65793 17.7989 6.37412 17.1306 5.80649 16.5813C5.25718 16.032 4.598 15.7573 3.82896 15.7573ZM2.34582 18.5863C2.34582 18.1834 2.4923 17.8355 2.78527 17.5426C3.07824 17.2496 3.42613 17.1031 3.82896 17.1031C4.23179 17.1031 4.57054 17.2496 4.84519 17.5426C5.13816 17.8355 5.28464 18.1834 5.28464 18.5863C5.28464 18.9891 5.13816 19.337 4.84519 19.63C4.57054 19.9046 4.23179 20.042 3.82896 20.042C3.42613 20.042 3.07824 19.9046 2.78527 19.63C2.4923 19.337 2.34582 18.9891 2.34582 18.5863Z" fill="currentColor"/>
<path d="M16.7653 18.5863C16.7653 17.7989 17.0399 17.1306 17.5893 16.5813C18.1386 16.032 18.8069 15.7573 19.5943 15.7573C20.3816 15.7573 21.0499 16.032 21.5992 16.5813C22.1486 17.1306 22.4232 17.7989 22.4232 18.5863C22.4232 19.3553 22.1486 20.0236 21.5992 20.5913C21.0499 21.1406 20.3816 21.4152 19.5943 21.4152C18.8069 21.4152 18.1386 21.1406 17.5893 20.5913C17.0399 20.0236 16.7653 19.3553 16.7653 18.5863Z" fill="currentColor"/>
</svg>
