<svg width="100%" height="100%" viewBox="0 0 24 24" fill="none" xmlns="http://www.w3.org/2000/svg">
<path fill-rule="evenodd" clip-rule="evenodd" d="M8 2C8.55228 2 9 2.44772 9 3V4H15V3C15 2.44772 15.4477 2 16 2C16.5523 2 17 2.44772 17 3V4H18C19.6569 4 21 5.34315 21 7V18C21 19.6569 19.6569 21 18 21H6C4.34315 21 3 19.6569 3 18V7C3 5.34315 4.34315 4 6 4H7V3C7 2.44772 7.44772 2 8 2ZM6 6C5.44772 6 5 6.44772 5 7V9H19V7C19 6.44772 18.5523 6 18 6H6ZM19 11H5V18C5 18.5523 5.44772 19 6 19H18C18.5523 19 19 18.5523 19 18V11Z" fill="currentColor"/>
</svg>
