<svg width="100%" height="100%" viewBox="0 0 24 24" fill="none" xmlns="http://www.w3.org/2000/svg">
<path fill-rule="evenodd" clip-rule="evenodd" d="M4.31475 4.31475C4.73442 3.89508 5.41483 3.89508 5.8345 4.31475L12 10.4802L18.1655 4.31475C18.5852 3.89508 19.2656 3.89508 19.6852 4.31475C20.1049 4.73442 20.1049 5.41483 19.6852 5.8345L13.5198 12L19.6852 18.1655C20.1049 18.5852 20.1049 19.2656 19.6852 19.6852C19.2656 20.1049 18.5852 20.1049 18.1655 19.6852L12 13.5198L5.8345 19.6852C5.41483 20.1049 4.73442 20.1049 4.31475 19.6852C3.89508 19.2656 3.89508 18.5852 4.31475 18.1655L10.4802 12L4.31475 5.8345C3.89508 5.41483 3.89508 4.73442 4.31475 4.31475Z" fill="currentColor"/>
</svg>
