<svg width="100%" height="100%" viewBox="0 0 24 24" fill="none" xmlns="http://www.w3.org/2000/svg">
<path d="M15.5242 4.86239C15.7244 4.40743 15.5178 3.87633 15.0629 3.67614C14.6079 3.47596 14.0768 3.6825 13.8766 4.13746L7.27661 19.1375C7.07643 19.5924 7.28297 20.1235 7.73793 20.3237C8.1929 20.5239 8.724 20.3174 8.92418 19.8624L15.5242 4.86239Z" fill="currentColor"/>
<path d="M17.1517 16.6133C16.7577 16.3103 16.684 15.7452 16.987 15.3512L19.5649 11.9999L16.987 8.64869C16.684 8.25471 16.7577 7.68965 17.1517 7.38659C17.5456 7.08353 18.1107 7.15723 18.4138 7.55121L21.4138 11.4512C21.6626 11.7747 21.6626 12.2252 21.4138 12.5487L18.4138 16.4487C18.1107 16.8427 17.5456 16.9164 17.1517 16.6133Z" fill="currentColor"/>
<path d="M6.84913 7.38668C7.24311 7.68974 7.31681 8.2548 7.01375 8.64878L4.43586 12L7.01375 15.3513C7.31681 15.7453 7.24311 16.3103 6.84913 16.6134C6.45515 16.9165 5.89009 16.8428 5.58703 16.4488L2.58703 12.5488C2.33818 12.2253 2.33818 11.7748 2.58703 11.4513L5.58703 7.5513C5.89009 7.15732 6.45515 7.08362 6.84913 7.38668Z" fill="currentColor"/>
</svg>
