<svg width="100%" height="100%" viewBox="0 0 24 24" fill="none" xmlns="http://www.w3.org/2000/svg">
<path fill-rule="evenodd" clip-rule="evenodd" d="M6.75 5.75C6.75 4.09315 8.09315 2.75 9.75 2.75H18.25C19.9069 2.75 21.25 4.09315 21.25 5.75V14.26C21.25 15.9169 19.9069 17.26 18.25 17.26H17.25V18.25C17.25 19.9069 15.9069 21.25 14.25 21.25H5.75C4.09315 21.25 2.75 19.9069 2.75 18.25V9.75C2.75 8.09315 4.09315 6.75 5.75 6.75H6.75V5.75ZM5.75 8.75C5.19772 8.75 4.75 9.19772 4.75 9.75V18.25C4.75 18.8023 5.19772 19.25 5.75 19.25H14.25C14.8023 19.25 15.25 18.8023 15.25 18.25V9.75C15.25 9.19772 14.8023 8.75 14.25 8.75H5.75ZM17.25 15.26V9.75C17.25 8.09315 15.9069 6.75 14.25 6.75H8.75V5.75C8.75 5.19772 9.19772 4.75 9.75 4.75H18.25C18.8023 4.75 19.25 5.19772 19.25 5.75V14.26C19.25 14.8123 18.8023 15.26 18.25 15.26H17.25Z" fill="currentColor"/>
</svg>
