<svg width="100%" height="100%" viewBox="0 0 24 24" fill="none" xmlns="http://www.w3.org/2000/svg">
<path fill-rule="evenodd" clip-rule="evenodd" d="M4 20C4 19.4477 4.44772 19 5 19H19C19.5523 19 20 19.4477 20 20C20 20.5523 19.5523 21 19 21H5C4.44772 21 4 20.5523 4 20Z" fill="currentColor"/>
<path fill-rule="evenodd" clip-rule="evenodd" d="M10.9995 14.4229L8.45406 11.8775C8.06353 11.487 7.43037 11.487 7.03985 11.8775C6.64932 12.2681 6.64932 12.9012 7.03985 13.2918L10.29 16.5419C11.2341 17.486 12.7648 17.486 13.7089 16.5419L16.9591 13.2918C17.3496 12.9012 17.3496 12.2681 16.9591 11.8775C16.5685 11.487 15.9354 11.487 15.5448 11.8775L12.9995 14.4229L12.9995 4.25C12.9995 3.69771 12.5517 3.25 11.9995 3.25C11.4472 3.25 10.9995 3.69772 10.9995 4.25L10.9995 14.4229Z" fill="currentColor"/>
</svg>
