<svg width="100%" height="100%" viewBox="0 0 24 24" fill="none" xmlns="http://www.w3.org/2000/svg">
<path fill-rule="evenodd" clip-rule="evenodd" d="M4.75 10C3.64543 10 2.75 10.8954 2.75 12C2.75 13.1046 3.64543 14 4.75 14C5.85457 14 6.75 13.1046 6.75 12C6.75 10.8954 5.85457 10 4.75 10ZM12 10C10.8954 10 10 10.8954 10 12C10 13.1046 10.8954 14 12 14C13.1046 14 14 13.1046 14 12C14 10.8954 13.1046 10 12 10ZM19.25 10C18.1454 10 17.25 10.8954 17.25 12C17.25 13.1046 18.1454 14 19.25 14C20.3546 14 21.25 13.1046 21.25 12C21.25 10.8954 20.3546 10 19.25 10Z" fill="currentColor"/>
</svg>
