<svg width="100%" height="100%" viewBox="0 0 24 24" fill="none" xmlns="http://www.w3.org/2000/svg">
<path fill-rule="evenodd" clip-rule="evenodd" d="M19.4143 19.0711C15.509 22.9763 9.17739 22.9763 5.27214 19.0711C4.88161 18.6805 4.88162 18.0474 5.27214 17.6568C5.66267 17.2663 6.29583 17.2663 6.68635 17.6568C9.81055 20.7811 14.8758 20.7811 18 17.6568C21.1243 14.5326 21.1243 9.46735 18 6.34315C14.8758 3.21895 9.81055 3.21895 6.68635 6.34315C6.14324 6.88626 5.69529 7.48687 5.34164 8.125H8.1565C8.70878 8.125 9.1565 8.57272 9.1565 9.125C9.1565 9.67729 8.70878 10.125 8.1565 10.125H4.14589C2.96073 10.125 2 9.16427 2 7.97911V3.9685C2 3.41622 2.44772 2.9685 3 2.9685C3.55228 2.9685 4 3.41622 4 3.9685V6.48398C4.36433 5.93406 4.78847 5.41261 5.27214 4.92894C9.17739 1.02369 15.509 1.02369 19.4143 4.92893C23.3195 8.83418 23.3195 15.1658 19.4143 19.0711ZM13.926 8.07596L12.6233 12.4639L15.4094 15.25L13.9952 16.6642L10.3671 13.0361L12.0087 7.50676L13.926 8.07596Z" fill="currentColor"/>
</svg>
