<svg width="100%" height="100%" viewBox="0 0 24 24" fill="none" xmlns="http://www.w3.org/2000/svg">
<path fill-rule="evenodd" clip-rule="evenodd" d="M12.2697 4.03701C12.0934 3.98766 11.9069 3.98766 11.7306 4.03701C11.6806 4.051 11.5952 4.08476 11.4131 4.21163C11.2206 4.34572 10.9839 4.53726 10.6128 4.83871L5.81283 8.73871C5.33585 9.12626 5.24719 9.20896 5.18738 9.29239C5.11818 9.38893 5.06673 9.49702 5.03545 9.6116C5.00841 9.71063 5.00013 9.83159 5.00013 10.4462V17.4731C5.00013 18.0496 5.00091 18.4219 5.02406 18.7052C5.04626 18.9769 5.08393 19.0776 5.10913 19.127C5.205 19.3152 5.35798 19.4682 5.54614 19.5641C5.59559 19.5893 5.69631 19.6269 5.96797 19.6491C6.25131 19.6723 6.62358 19.6731 7.20013 19.6731H8.00013V15.6731C8.00013 14.0162 9.34328 12.6731 11.0001 12.6731H13.0001C14.657 12.6731 16.0001 14.0162 16.0001 15.6731V19.6731H16.8001C17.3767 19.6731 17.749 19.6723 18.0323 19.6491C18.304 19.6269 18.4047 19.5893 18.4541 19.5641C18.6423 19.4682 18.7953 19.3152 18.8911 19.127C18.9163 19.0776 18.954 18.9769 18.9762 18.7052C18.9994 18.4219 19.0001 18.0496 19.0001 17.4731V10.4462C19.0001 9.83159 18.9919 9.71063 18.9648 9.6116C18.9335 9.49702 18.8821 9.38893 18.8129 9.29239C18.7531 9.20896 18.6644 9.12626 18.1874 8.73871L13.3874 4.83871C13.0164 4.53726 12.7797 4.34572 12.5872 4.21163C12.4051 4.08476 12.3197 4.051 12.2697 4.03701ZM14.0001 19.6731V15.6731C14.0001 15.1208 13.5524 14.6731 13.0001 14.6731H11.0001C10.4478 14.6731 10.0001 15.1208 10.0001 15.6731V19.6731H14.0001ZM11.1915 2.11104C11.7204 1.96299 12.2798 1.96299 12.8088 2.11104C13.1587 2.20897 13.453 2.37728 13.7305 2.57061C13.9909 2.75205 14.2852 2.99116 14.6225 3.26525L19.4486 7.18649C19.4736 7.20678 19.4984 7.22687 19.523 7.24681C19.8839 7.53941 20.2019 7.79723 20.4384 8.12717C20.646 8.41678 20.8003 8.74106 20.8942 9.0848C21.0011 9.47642 21.0007 9.88581 21.0002 10.3504C21.0002 10.3821 21.0001 10.414 21.0001 10.4462V17.5116C21.0002 18.0388 21.0002 18.4935 20.9696 18.8681C20.9373 19.2634 20.8659 19.6567 20.6732 20.035C20.3855 20.5995 19.9266 21.0585 19.3621 21.3461C18.9837 21.5389 18.5905 21.6102 18.1952 21.6425C17.8206 21.6731 17.3658 21.6731 16.8387 21.6731H7.16157C6.63443 21.6731 6.17967 21.6731 5.8051 21.6425C5.40976 21.6102 5.01654 21.5389 4.63816 21.3461C4.07367 21.0585 3.61473 20.5995 3.32711 20.035C3.13432 19.6567 3.063 19.2634 3.0307 18.8681C3.0001 18.4935 3.00011 18.0388 3.00013 17.5116L3.00013 10.4462C3.00013 10.414 3.0001 10.3821 3.00007 10.3504C2.99958 9.88581 2.99914 9.47642 3.10607 9.0848C3.19993 8.74106 3.35427 8.41678 3.56188 8.12717C3.79839 7.79723 4.11639 7.53941 4.4773 7.24681C4.50188 7.22687 4.52667 7.20678 4.55164 7.18649L9.37779 3.26524C9.71511 2.99115 10.0094 2.75205 10.2698 2.57061C10.5473 2.37728 10.8416 2.20897 11.1915 2.11104Z" fill="currentColor"/>
</svg>
