<svg width="100%" height="100%" viewBox="0 0 24 24" fill="none" xmlns="http://www.w3.org/2000/svg">
<path fill-rule="evenodd" clip-rule="evenodd" d="M12 4C8.68629 4 6 6.68629 6 10C6 11.8964 6.84877 13.7791 8.01178 15.4528C9.16717 17.1156 10.5688 18.4804 11.5264 19.32C11.8056 19.5648 12.1944 19.5648 12.4736 19.32C13.4312 18.4804 14.8328 17.1156 15.9882 15.4528C17.1512 13.7791 18 11.8964 18 10C18 6.68629 15.3137 4 12 4ZM4 10C4 5.58172 7.58172 2 12 2C16.4183 2 20 5.58172 20 10C20 12.4742 18.9059 14.7588 17.6306 16.5941C16.3478 18.4403 14.8159 19.9262 13.7922 20.8238C12.7584 21.7302 11.2416 21.7302 10.2078 20.8238C9.18407 19.9262 7.65218 18.4403 6.36935 16.5941C5.09414 14.7588 4 12.4742 4 10ZM11.9978 8.5C11.1694 8.5 10.4978 9.17157 10.4978 10C10.4978 10.8284 11.1694 11.5 11.9978 11.5C12.8262 11.5 13.4978 10.8284 13.4978 10C13.4978 9.17157 12.8262 8.5 11.9978 8.5ZM8.4978 10C8.4978 8.067 10.0648 6.5 11.9978 6.5C13.9308 6.5 15.4978 8.067 15.4978 10C15.4978 11.933 13.9308 13.5 11.9978 13.5C10.0648 13.5 8.4978 11.933 8.4978 10Z" fill="currentColor"/>
</svg>
