<svg width="100%" height="100%" viewBox="0 0 24 24" fill="none" xmlns="http://www.w3.org/2000/svg">
<path fill-rule="evenodd" clip-rule="evenodd" d="M5.48276 6C4.56457 6 4 6.64948 4 7.24V16.76C4 17.3505 4.56456 18 5.48276 18H18.5172C19.4355 18 20 17.3506 20 16.76V7.24C20 6.64947 19.4355 6 18.5172 6H5.48276ZM2 7.24C2 5.35629 3.65857 4 5.48276 4H18.5172C20.3415 4 22 5.3563 22 7.24V16.76C22 18.6437 20.3415 20 18.5172 20H5.48276C3.65858 20 2 18.6438 2 16.76V7.24Z" fill="currentColor"/>
<path fill-rule="evenodd" clip-rule="evenodd" d="M3.24742 5.3415C3.61111 4.92586 4.24287 4.88374 4.6585 5.24742L11.3415 11.095C11.7185 11.4249 12.2815 11.4249 12.6585 11.095L19.3415 5.24742C19.7571 4.88374 20.3889 4.92586 20.7526 5.3415C21.1163 5.75713 21.0741 6.38889 20.6585 6.75258L13.9755 12.6002C12.8444 13.5899 11.1556 13.5899 10.0245 12.6002L3.3415 6.75258C2.92586 6.38889 2.88374 5.75713 3.24742 5.3415Z" fill="currentColor"/>
</svg>
