<svg width="100%" height="100%" viewBox="0 0 24 24" fill="none" xmlns="http://www.w3.org/2000/svg">
<path fill-rule="evenodd" clip-rule="evenodd" d="M12.097 2.53021C12.2912 2.86472 12.2751 3.28123 12.0556 3.59971C11.3897 4.56582 11 5.73577 11 6.99976C11 10.3135 13.6863 12.9998 17 12.9998C18.2641 12.9998 19.4341 12.61 20.4002 11.9441C20.7187 11.7246 21.1352 11.7084 21.4697 11.9026C21.8042 12.0968 21.9968 12.4664 21.9641 12.8519C21.5303 17.9745 17.2363 21.996 12.002 21.996C6.48022 21.996 2.00391 17.5197 2.00391 11.9979C2.00391 6.76372 6.02531 2.46985 11.1477 2.03581C11.5332 2.00315 11.9028 2.19569 12.097 2.53021ZM9.42394 4.42417C6.27191 5.49679 4.00391 8.48285 4.00391 11.9979C4.00391 16.4151 7.58479 19.996 12.002 19.996C15.5172 19.996 18.5033 17.7279 19.5758 14.5757C18.7671 14.8506 17.9006 14.9998 17 14.9998C12.5817 14.9998 9 11.418 9 6.99976C9 6.0993 9.14909 5.2328 9.42394 4.42417Z" fill="currentColor"/>
</svg>
