<svg width="100%" height="100%" viewBox="0 0 24 24" fill="none" xmlns="http://www.w3.org/2000/svg">
<path d="M12.9 3C12.9 2.50294 12.4971 2.1 12 2.1C11.5029 2.1 11.1 2.50294 11.1 3V10.2C11.1 10.6971 11.5029 11.1 12 11.1C12.4971 11.1 12.9 10.6971 12.9 10.2V3ZM16.4918 4.80109C16.0611 4.55302 15.5108 4.70108 15.2628 5.1318C15.0147 5.56253 15.1628 6.1128 15.5935 6.36088C16.9672 7.15209 18.0414 8.37456 18.6494 9.83862C19.2574 11.3027 19.3652 12.9265 18.9561 14.4581C18.547 15.9897 17.6439 17.3434 16.3868 18.3093C15.1298 19.2752 13.5891 19.7992 12.0038 19.8C10.4185 19.8009 8.87724 19.2785 7.61916 18.3139C6.36109 17.3493 5.45653 15.9965 5.04583 14.4653C4.63512 12.9342 4.74124 11.3103 5.34771 9.84558C5.95418 8.38088 7.0271 7.15729 8.4 6.36465C8.83047 6.11612 8.97796 5.56569 8.72943 5.13522C8.4809 4.70476 7.93047 4.55727 7.5 4.8058C5.78388 5.7966 4.44273 7.3261 3.68464 9.15696C2.92655 10.9878 2.7939 13.0177 3.30728 14.9317C3.82066 16.8456 4.95136 18.5366 6.52395 19.7424C8.09654 20.9481 10.0231 21.6011 12.0047 21.6C13.9863 21.599 15.9122 20.944 17.4835 19.7366C19.0549 18.5293 20.1838 16.8371 20.6952 14.9226C21.2065 13.0081 21.0718 10.9783 20.3118 9.14826C19.5518 7.31819 18.209 5.7901 16.4918 4.80109Z" fill="currentColor"/>
</svg>
