<svg width="100%" height="100%" viewBox="0 0 24 24" fill="none" xmlns="http://www.w3.org/2000/svg">
<path fill-rule="evenodd" clip-rule="evenodd" d="M11.9995 4C10.6188 4 9.49953 5.11929 9.49953 6.5C9.49953 7.88071 10.6188 9 11.9995 9C13.3802 9 14.4995 7.88071 14.4995 6.5C14.4995 5.11929 13.3802 4 11.9995 4ZM7.49953 6.5C7.49953 4.01472 9.51425 2 11.9995 2C14.4848 2 16.4995 4.01472 16.4995 6.5C16.4995 8.98528 14.4848 11 11.9995 11C9.51425 11 7.49953 8.98528 7.49953 6.5ZM11.9995 14C9.04913 14 6.83613 15.7325 5.91992 18.2098C5.85155 18.3946 5.88639 18.5559 6.00999 18.7032C6.14737 18.8669 6.39485 19 6.69637 19H17.3027C17.6042 19 17.8517 18.8669 17.9891 18.7032C18.1127 18.5559 18.1475 18.3946 18.0791 18.2098C17.1629 15.7325 14.9499 14 11.9995 14ZM4.0441 17.516C5.23491 14.2962 8.16763 12 11.9995 12C15.8314 12 18.7641 14.2962 19.955 17.516C20.2954 18.4365 20.0623 19.3438 19.5212 19.9887C18.9938 20.6172 18.1797 21 17.3027 21H6.69637C5.81937 21 5.00527 20.6172 4.4779 19.9887C3.93674 19.3438 3.70367 18.4365 4.0441 17.516Z" fill="currentColor"/>
</svg>
