<svg width="100%" height="100%" viewBox="0 0 24 24" fill="none" xmlns="http://www.w3.org/2000/svg">
<path fill-rule="evenodd" clip-rule="evenodd" d="M12 4C11.7721 4 11.5592 4.11391 11.4328 4.30355L10.8781 5.13556L10.1041 4.61956L10.8781 5.13556C10.1984 6.15514 8.95854 6.64748 7.76455 6.37195L7.08029 6.21404C6.83762 6.15804 6.58321 6.231 6.40711 6.40711L5.7 5.7L6.40711 6.40711C6.231 6.58321 6.15804 6.83762 6.21404 7.08029L6.37195 7.76454C6.64748 8.95854 6.15514 10.1984 5.13556 10.8781L4.30355 11.4328C4.11391 11.5592 4 11.7721 4 12C4 12.2279 4.11391 12.4408 4.30355 12.5672L5.13556 13.1219C6.15514 13.8016 6.64748 15.0415 6.37195 16.2355L6.21404 16.9197C6.15804 17.1624 6.231 17.4168 6.40711 17.5929C6.58321 17.769 6.83762 17.842 7.08029 17.786L7.76454 17.6281C8.95854 17.3525 10.1984 17.8449 10.8781 18.8644L11.4328 19.6965C11.5592 19.8861 11.7721 20 12 20C12.2279 20 12.4408 19.8861 12.5672 19.6965L13.1219 18.8644C13.8016 17.8449 15.0415 17.3525 16.2355 17.6281L16.9197 17.786C17.1624 17.842 17.4168 17.769 17.5929 17.5929L18.3 18.3L17.5929 17.5929C17.769 17.4168 17.842 17.1624 17.786 16.9197L17.6281 16.2355C17.3525 15.0415 17.8449 13.8016 18.8644 13.1219L19.6965 12.5672C19.8861 12.4408 20 12.2279 20 12C20 11.7721 19.8861 11.5592 19.6965 11.4328L18.8644 10.8781C17.8449 10.1984 17.3525 8.95855 17.6281 7.76455L17.786 7.08029C17.842 6.83762 17.769 6.58321 17.5929 6.40711C17.4168 6.231 17.1624 6.15804 16.9197 6.21404L16.2355 6.37195C15.0415 6.64748 13.8016 6.15514 13.1219 5.13556L13.9539 4.58086L13.1219 5.13556L12.5672 4.30355L13.3992 3.74884L12.5672 4.30354C12.4408 4.11391 12.2279 4 12 4ZM9.76872 3.19414C10.2661 2.44811 11.1034 2 12 2C12.8966 2 13.7339 2.44811 14.2313 3.19415L14.786 4.02616C15.0042 4.35355 15.4023 4.51164 15.7857 4.42316L16.47 4.26526C17.3846 4.0542 18.3434 4.32918 19.0071 4.99289C19.6708 5.65661 19.9458 6.61541 19.7347 7.53001L19.5768 8.21426C19.4884 8.59766 19.6465 8.99578 19.9738 9.21404L20.8059 9.76872C21.5519 10.2661 22 11.1034 22 12C22 12.8966 21.5519 13.7339 20.8059 14.2313L19.9738 14.786C19.6465 15.0042 19.4884 15.4023 19.5768 15.7857L19.7347 16.47C19.9458 17.3846 19.6708 18.3434 19.0071 19.0071C18.3434 19.6708 17.3846 19.9458 16.47 19.7347L15.7857 19.5768C15.4023 19.4884 15.0042 19.6465 14.786 19.9738L14.2313 20.8059C13.7339 21.5519 12.8966 22 12 22C11.1034 22 10.2661 21.5519 9.76872 20.8059L9.21404 19.9738C8.99579 19.6465 8.59766 19.4884 8.21426 19.5768L7.53001 19.7347C6.61541 19.9458 5.6566 19.6708 4.99289 19.0071C4.32918 18.3434 4.0542 17.3846 4.26526 16.47L4.42316 15.7857C4.51164 15.4023 4.35355 15.0042 4.02616 14.786L3.19414 14.2313C2.44811 13.7339 2 12.8966 2 12C2 11.1034 2.44811 10.2661 3.19414 9.76872L4.02616 9.21404C4.35355 8.99579 4.51164 8.59766 4.42316 8.21426L4.26526 7.53001C4.0542 6.61541 4.32918 5.6566 4.99289 4.99289C5.6566 4.32918 6.61541 4.0542 7.53001 4.26526L8.21426 4.42316C8.59766 4.51164 8.99579 4.35355 9.21404 4.02616L10.0461 4.58086L9.21404 4.02616L9.76872 3.19414ZM8 12C8 9.79086 9.79086 8 12 8C14.2091 8 16 9.79086 16 12C16 14.2091 14.2091 16 12 16C9.79086 16 8 14.2091 8 12ZM12 10C10.8954 10 10 10.8954 10 12C10 13.1046 10.8954 14 12 14C13.1046 14 14 13.1046 14 12C14 10.8954 13.1046 10 12 10Z" fill="currentColor"/>
</svg>
