<svg width="100%" height="100%" viewBox="0 0 24 24" fill="none" xmlns="http://www.w3.org/2000/svg">
<path d="M11.4627 4.75098L14.3307 4.75098L8.66466 10.417C8.27414 10.8075 8.27414 11.4407 8.66466 11.8312C9.05519 12.2217 9.68835 12.2217 10.0789 11.8312L15.7449 6.16519L15.7449 9.03321C15.7449 9.58549 16.1926 10.0332 16.7449 10.0332C17.2972 10.0332 17.7449 9.5855 17.7449 9.03321L17.7449 4.99602C17.7449 3.75612 16.7398 2.75098 15.4999 2.75098L11.4627 2.75098C10.9104 2.75098 10.4627 3.19869 10.4627 3.75097C10.4627 4.30326 10.9104 4.75098 11.4627 4.75098Z" fill="currentColor"/>
<path d="M12.5371 19.2489L9.66911 19.2489L15.3351 13.5829C15.7256 13.1923 15.7256 12.5592 15.3351 12.1686C14.9446 11.7781 14.3114 11.7781 13.9209 12.1686L8.25488 17.8347L8.25489 14.9666C8.25489 14.4143 7.80718 13.9666 7.25489 13.9666C6.70261 13.9666 6.25489 14.4143 6.25489 14.9666L6.25488 19.0038C6.25488 20.2437 7.26002 21.2489 8.49991 21.2489L12.5371 21.2489C13.0894 21.2489 13.5371 20.8011 13.5371 20.2489C13.5371 19.6966 13.0894 19.2489 12.5371 19.2489Z" fill="currentColor"/>
</svg>
