<svg width="100%" height="100%" viewBox="0 0 24 24" fill="none" xmlns="http://www.w3.org/2000/svg">
<path fill-rule="evenodd" clip-rule="evenodd" d="M8.99983 4C7.61912 4 6.49983 5.11929 6.49983 6.5C6.49983 7.88071 7.61912 9 8.99983 9C10.3805 9 11.4998 7.88071 11.4998 6.5C11.4998 5.11929 10.3805 4 8.99983 4ZM4.49983 6.5C4.49983 4.01472 6.51455 2 8.99983 2C11.4851 2 13.4998 4.01472 13.4998 6.5C13.4998 8.98528 11.4851 11 8.99983 11C6.51455 11 4.49983 8.98528 4.49983 6.5ZM13.9998 3C13.9998 2.44772 14.4475 2 14.9998 2C17.4851 2 19.4998 4.01472 19.4998 6.5C19.4998 8.98528 17.4851 11 14.9998 11C14.4475 11 13.9998 10.5523 13.9998 10C13.9998 9.44772 14.4475 9 14.9998 9C16.3805 9 17.4998 7.88071 17.4998 6.5C17.4998 5.11929 16.3805 4 14.9998 4C14.4475 4 13.9998 3.55228 13.9998 3ZM8.99983 14C5.72974 14 3.08418 15.9059 2.26817 18.3508C2.21922 18.4974 2.24668 18.6182 2.35638 18.7396C2.48333 18.8801 2.71643 19 2.99983 19H14.9998C15.2832 19 15.5163 18.8801 15.6433 18.7396C15.753 18.6182 15.7804 18.4974 15.7315 18.3508C14.9155 15.9059 12.2699 14 8.99983 14ZM0.371048 17.7176C1.49687 14.3444 4.99336 12 8.99983 12C13.0063 12 16.5028 14.3444 17.6286 17.7176C17.9294 18.6187 17.669 19.4808 17.1273 20.0804C16.6029 20.6608 15.821 21 14.9998 21H2.99983C2.17866 21 1.3968 20.6608 0.872361 20.0804C0.330664 19.4808 0.0703011 18.6187 0.371048 17.7176ZM17.0572 13.1749C17.2416 12.6543 17.8131 12.3818 18.3337 12.5662C20.8356 13.4523 22.8309 15.3273 23.6287 17.7177C23.9294 18.6188 23.669 19.4809 23.1273 20.0805C22.6028 20.6609 21.8209 21 20.9998 21H20.4998C19.9475 21 19.4998 20.5522 19.4998 20C19.4998 19.4477 19.9475 19 20.4998 19H20.9998C21.2833 19 21.5164 18.8801 21.6433 18.7396C21.753 18.6182 21.7805 18.4975 21.7315 18.3508C21.1537 16.6196 19.6656 15.1597 17.666 14.4514C17.1454 14.267 16.8728 13.6955 17.0572 13.1749Z" fill="currentColor"/>
</svg>
