<svg width="20" height="20" viewBox="0 0 20 20" fill="none" xmlns="http://www.w3.org/2000/svg">
<g id="General">
<path id="Vector" fill-rule="evenodd" clip-rule="evenodd" d="M8.72285 2.24868C9.39736 1.47237 10.6027 1.47236 11.2772 2.24868L12.4091 3.55139C12.4148 3.55797 12.4235 3.56114 12.4322 3.55977L14.1366 3.2894C15.1523 3.12827 16.0757 3.90307 16.0934 4.93133L16.1231 6.65682C16.1232 6.66553 16.1279 6.67356 16.1353 6.67805L17.6148 7.56652C18.4964 8.09598 18.7058 9.28303 18.0584 10.0821L16.972 11.423C16.9665 11.4298 16.9649 11.4389 16.9677 11.4471L17.53 13.0787C17.865 14.051 17.2623 15.0949 16.2528 15.2909L14.5587 15.6198C14.5501 15.6214 14.543 15.6274 14.5399 15.6355L13.9218 17.2468C13.5535 18.207 12.4208 18.6193 11.5215 18.1205L10.0123 17.2834C10.0047 17.2792 9.99541 17.2792 9.98779 17.2834L8.47862 18.1205C7.57927 18.6193 6.4466 18.207 6.07828 17.2468L5.46021 15.6355C5.45709 15.6274 5.44999 15.6214 5.44143 15.6198L3.74731 15.2909C2.73775 15.0949 2.13506 14.051 2.47012 13.0787L3.03236 11.4471C3.0352 11.4389 3.03359 11.4298 3.0281 11.423L1.94173 10.0821C1.29434 9.28303 1.50365 8.09598 2.3853 7.56652L3.86476 6.67805C3.87224 6.67356 3.87687 6.66553 3.87702 6.65682L3.90672 4.93133C3.92443 3.90307 4.84779 3.12827 5.8635 3.2894L7.56793 3.55977C7.57655 3.56114 7.58526 3.55797 7.59098 3.55139L8.72285 2.24868ZM9.9891 3.33519C9.98759 3.33585 9.98503 3.33713 9.98096 3.34181L8.84909 4.64452C8.46624 5.08514 7.88332 5.29731 7.30681 5.20586L5.60238 4.93548C5.59626 4.93451 5.59347 4.93518 5.59189 4.93564C5.58943 4.93635 5.58587 4.93798 5.58217 4.94108C5.57847 4.94419 5.57625 4.9474 5.57512 4.94971C5.5744 4.95119 5.57325 4.95382 5.57314 4.96001L5.54344 6.6855C5.5334 7.26913 5.22322 7.80636 4.72281 8.10687L3.24335 8.99534C3.23804 8.99853 3.23633 9.00083 3.23542 9.0022C3.23398 9.00433 3.23231 9.00786 3.23147 9.01262C3.23063 9.01738 3.23099 9.02127 3.23161 9.02376C3.23201 9.02536 3.23282 9.02811 3.23672 9.03292L4.32309 10.3738C4.69054 10.8274 4.79826 11.4383 4.60809 11.9901L4.04585 13.6217C4.04383 13.6276 4.04401 13.6304 4.04418 13.6321C4.04445 13.6346 4.04544 13.6384 4.04786 13.6426C4.05028 13.6468 4.05306 13.6495 4.05513 13.651C4.05646 13.652 4.05885 13.6536 4.06494 13.6548L5.75905 13.9837C6.33207 14.0949 6.80727 14.4936 7.01633 15.0386L7.63439 16.6499C7.63661 16.6557 7.63858 16.6578 7.63976 16.6589C7.64161 16.6607 7.6448 16.663 7.64934 16.6646C7.65388 16.6663 7.65778 16.6666 7.66034 16.6664C7.66198 16.6663 7.66483 16.666 7.67025 16.663L9.17942 15.8259C9.68988 15.5428 10.3102 15.5428 10.8207 15.8259L12.3298 16.663C12.3353 16.666 12.3381 16.6663 12.3397 16.6664C12.3423 16.6666 12.3462 16.6663 12.3507 16.6646C12.3553 16.663 12.3585 16.6607 12.3603 16.6589C12.3615 16.6578 12.3635 16.6557 12.3657 16.6499L12.9838 15.0386C13.1928 14.4936 13.668 14.0949 14.241 13.9837L15.9352 13.6548C15.9412 13.6536 15.9436 13.652 15.945 13.651C15.947 13.6495 15.9498 13.6468 15.9522 13.6426C15.9546 13.6384 15.9556 13.6346 15.9559 13.6321C15.9561 13.6304 15.9563 13.6276 15.9542 13.6217L15.392 11.9901C15.2018 11.4383 15.3095 10.8274 15.677 10.3738L16.7634 9.03292C16.7673 9.02811 16.7681 9.02536 16.7685 9.02376C16.7691 9.02127 16.7695 9.01738 16.7686 9.01262C16.7678 9.00786 16.7661 9.00433 16.7647 9.0022C16.7638 9.00083 16.7621 8.99853 16.7567 8.99534L15.2773 8.10687C14.7769 7.80636 14.4667 7.26913 14.4567 6.6855L14.4269 4.96001C14.4268 4.95382 14.4257 4.95119 14.425 4.94971C14.4238 4.9474 14.4216 4.94419 14.4179 4.94108C14.4142 4.93798 14.4107 4.93635 14.4082 4.93564C14.4066 4.93518 14.4038 4.93451 14.3977 4.93548L12.6933 5.20586C12.1168 5.29731 11.5338 5.08514 11.151 4.64452L10.0191 3.34181C10.0151 3.33713 10.0125 3.33585 10.011 3.33519C10.0086 3.33414 10.0049 3.33311 10 3.33311C9.99521 3.33311 9.99144 3.33414 9.9891 3.33519ZM12.6726 8.16071C12.9981 8.48615 12.9981 9.01378 12.6726 9.33922L10.0506 11.9613C9.56245 12.4494 8.77099 12.4494 8.28284 11.9613L7.32746 11.0059C7.00202 10.6804 7.00202 10.1528 7.32746 9.82738C7.6529 9.50194 8.18054 9.50194 8.50597 9.82738L9.16672 10.4881L11.4941 8.16071C11.8196 7.83527 12.3472 7.83527 12.6726 8.16071Z" fill="currentColor"/>
</g>
</svg>
