<svg width="100%" height="100%" viewBox="0 0 24 24" fill="none" xmlns="http://www.w3.org/2000/svg">
<path fill-rule="evenodd" clip-rule="evenodd" d="M8.69344 21.2629H2.11975V20.5443C2.11975 20.2136 2.38786 19.9455 2.71857 19.9455H2.83832V19.227C2.83832 18.8963 3.10641 18.6282 3.43712 18.6282V7.96947H2.77845L2 5.33473H5.47306V2.70001H18.5269V5.33473H22L21.2216 7.96947H20.5629V18.6282C20.8936 18.6282 21.1617 18.8963 21.1617 19.227V19.9455H21.2814C21.6121 19.9455 21.8802 20.2136 21.8802 20.5443V21.2629H15.3139V20.5443C15.3139 20.2136 15.5821 19.9455 15.9128 19.9455H16.0325V19.227C16.0325 18.9031 16.2896 18.6393 16.6108 18.6285V12.7599C16.399 10.4099 14.4052 8.56826 12 8.56826C9.59484 8.56826 7.60102 10.4099 7.38922 12.7599V18.6283C7.71384 18.6353 7.97487 18.9007 7.97487 19.227V19.5863V19.9455H8.09462C8.42533 19.9455 8.69344 20.2136 8.69344 20.5443V21.2629Z" fill="currentColor"/>
</svg>
