<svg width="100%" height="100%" viewBox="0 0 24 24" fill="none" xmlns="http://www.w3.org/2000/svg">
<path d="M4.7998 9.64432C4.7998 5.64339 8.0432 2.39999 12.0441 2.39999C16.0451 2.39999 19.2885 5.64339 19.2885 9.64432V20.6881C19.2885 21.1917 18.8802 21.6 18.3766 21.6H5.71168C5.20806 21.6 4.7998 21.1917 4.7998 20.6881V9.64432Z" fill="url(#paint0_linear_8484_16261)"/>
<path fill-rule="evenodd" clip-rule="evenodd" d="M18.3766 20.6881V9.64432C18.3766 6.147 15.5414 3.31187 12.0441 3.31187C8.54681 3.31187 5.71168 6.147 5.71168 9.64432V20.6881H18.3766ZM12.0441 2.39999C8.0432 2.39999 4.7998 5.64339 4.7998 9.64432V20.6881C4.7998 21.1917 5.20806 21.6 5.71168 21.6H18.3766C18.8802 21.6 19.2885 21.1917 19.2885 20.6881V9.64432C19.2885 5.64339 16.0451 2.39999 12.0441 2.39999Z" fill="currentColor"/>
<defs>
<linearGradient id="paint0_linear_8484_16261" x1="8.97922" y1="6.9087" x2="14.8304" y2="17.1419" gradientUnits="userSpaceOnUse">
<stop stop-color="white" stop-opacity="0"/>
<stop offset="1" stop-color="#160F1F"/>
</linearGradient>
</defs>
</svg>
