<svg width="100%" height="100%" viewBox="0 0 24 24" fill="none" xmlns="http://www.w3.org/2000/svg">
<g clip-path="url(#clip0_7988_680)">
<path fill-rule="evenodd" clip-rule="evenodd" d="M21.5994 12C21.5994 17.3019 17.3013 21.6 11.9994 21.6C6.69748 21.6 2.39941 17.3019 2.39941 12C2.39941 6.69806 6.69748 2.39999 11.9994 2.39999C17.3013 2.39999 21.5994 6.69806 21.5994 12ZM12.3427 9.48763C11.409 9.876 9.54284 10.6798 6.74424 11.8991C6.2898 12.0799 6.05174 12.2567 6.03006 12.4295C5.99344 12.7217 6.3593 12.8367 6.85751 12.9934C6.92528 13.0147 6.99549 13.0368 7.06748 13.0602C7.55764 13.2195 8.21699 13.4059 8.55976 13.4133C8.87068 13.42 9.21771 13.2918 9.60084 13.0288C12.2157 11.2637 13.5654 10.3715 13.6502 10.3523C13.71 10.3387 13.7928 10.3217 13.8489 10.3716C13.9051 10.4215 13.8996 10.5159 13.8936 10.5413C13.8574 10.6958 12.4212 12.031 11.678 12.7219C11.4463 12.9373 11.282 13.0901 11.2484 13.125C11.1731 13.2032 11.0964 13.2771 11.0227 13.3482C10.5673 13.7872 10.2259 14.1163 11.0416 14.6539C11.4336 14.9123 11.7473 15.1259 12.0603 15.339C12.4021 15.5718 12.743 15.8039 13.184 16.093C13.2964 16.1667 13.4037 16.2432 13.5082 16.3177C13.906 16.6013 14.2633 16.856 14.7048 16.8154C14.9613 16.7918 15.2263 16.5506 15.3609 15.8312C15.6789 14.131 16.304 10.4472 16.4485 8.92926C16.4612 8.79627 16.4452 8.62606 16.4325 8.55134C16.4197 8.47662 16.3929 8.37017 16.2958 8.29136C16.1808 8.19803 16.0032 8.17835 15.9238 8.17975C15.5627 8.18611 15.0088 8.37874 12.3427 9.48763Z" fill="currentColor"/>
</g>
<defs>
<clipPath id="clip0_7988_680">
<rect width="19.2" height="19.2" fill="white" transform="translate(2.40039 2.39999)"/>
</clipPath>
</defs>
</svg>
