<svg width="48" height="48" viewBox="0 0 48 48" fill="none" xmlns="http://www.w3.org/2000/svg">
<path fill-rule="evenodd" clip-rule="evenodd" d="M48 24C48 10.7452 37.2548 0 24 0C10.7452 0 0 10.7452 0 24C0 37.2548 10.7452 48 24 48C37.2548 48 48 37.2548 48 24ZM27.4241 41.9619C27.4241 43.59 26.0878 44.9135 24.191 44.9514C24.1385 44.9519 24.0858 44.9522 24.0332 44.9523H23.9641C12.4083 44.9336 3.04625 35.5601 3.04625 23.9999C3.04625 12.4283 12.427 3.04755 23.9986 3.04755C24.061 3.04755 24.1234 3.04783 24.1856 3.04837C26.3261 3.08649 27.4241 4.40987 27.4241 6.03792C27.4241 7.6949 25.9594 8.91419 24.4076 8.91419C22.8558 8.91419 22.7796 8.91419 21.2942 9.03322C19.8088 9.15225 18.2727 10.3715 18.2727 12.0236C18.2727 13.6855 19.6227 15.0238 21.2942 15.0238H34.4679C36.1344 15.0238 37.4844 16.3621 37.4844 18.0142C37.4844 19.6663 36.1344 21.0046 34.4679 21.0046H14.1769C12.5055 21.0046 11.1555 22.3478 11.1555 24.0048C11.1555 25.6569 12.5055 26.9952 14.1769 26.9952H24.4076C26.0741 26.9952 27.4241 28.3335 27.4241 29.9905C27.4241 31.6426 26.0741 32.9809 24.4076 32.9809H21.2942C19.6227 32.9809 18.2727 34.3192 18.2727 35.9713C18.2727 37.6283 19.6564 38.8378 21.2942 38.9617C21.4233 38.9715 21.5414 38.9805 21.6502 38.9888C22.2265 39.0327 22.5415 39.0567 22.8568 39.0698C23.2366 39.0856 23.6171 39.0856 24.4558 39.0856C26.1223 39.0856 27.4241 40.3098 27.4241 41.9619Z" fill="currentColor"/>
</svg>
